<?xml version="1.0" encoding="UTF-8" standalone="no"?>
<!-- Created with Inkscape (http://www.inkscape.org/) -->

<svg
   xmlns:dc="http://purl.org/dc/elements/1.1/"
   xmlns:cc="http://creativecommons.org/ns#"
   xmlns:rdf="http://www.w3.org/1999/02/22-rdf-syntax-ns#"
   xmlns:svg="http://www.w3.org/2000/svg"
   xmlns="http://www.w3.org/2000/svg"
   xmlns:sodipodi="http://sodipodi.sourceforge.net/DTD/sodipodi-0.dtd"
   xmlns:inkscape="http://www.inkscape.org/namespaces/inkscape"
   width="134.39861"
   height="44.574142"
   id="svg3707"
   version="1.1"
   inkscape:version="0.48.4 r9939"
   sodipodi:docname="New document 7">
  <defs
     id="defs3709" />
  <sodipodi:namedview
     id="base"
     pagecolor="#ffffff"
     bordercolor="#666666"
     borderopacity="1.0"
     inkscape:pageopacity="0.0"
     inkscape:pageshadow="2"
     inkscape:zoom="2.3809771"
     inkscape:cx="67.199303"
     inkscape:cy="22.287071"
     inkscape:document-units="px"
     inkscape:current-layer="layer1"
     showgrid="false"
     fit-margin-top="0"
     fit-margin-left="0"
     fit-margin-right="0"
     fit-margin-bottom="0"
     inkscape:window-width="484"
     inkscape:window-height="413"
     inkscape:window-x="488"
     inkscape:window-y="0"
     inkscape:window-maximized="0" />
  <metadata
     id="metadata3712">
    <rdf:RDF>
      <cc:Work
         rdf:about="">
        <dc:format>image/svg+xml</dc:format>
        <dc:type
           rdf:resource="http://purl.org/dc/dcmitype/StillImage" />
        <dc:title></dc:title>
      </cc:Work>
    </rdf:RDF>
  </metadata>
  <g
     inkscape:label="Layer 1"
     inkscape:groupmode="layer"
     id="layer1"
     transform="translate(-431.81091,-560.33579)">
    <g
       transform="matrix(0.81062391,0,0,0.81062391,250.80387,308.99873)"
       inkscape:label="Layer 1"
       id="layer1-6-3-3">
      <rect
         y="311.07678"
         x="224.31644"
         height="52.941566"
         width="163.75061"
         id="rect3056-1-5-9"
         style="fill:#ffffff;fill-opacity:1;stroke:#000000;stroke-width:2.04588675;stroke-linecap:round;stroke-miterlimit:4;stroke-opacity:1;stroke-dasharray:none;stroke-dashoffset:0" />
      <rect
         y="314.08743"
         x="324.84344"
         height="46.920265"
         width="60.195827"
         id="rect3056-17-9"
         style="fill:#000000;fill-opacity:1;stroke:none" />
      <g
         style="fill:#ffffff"
         transform="translate(26.712,-4.9448797)"
         id="g2822-4-6">
        <g
           style="font-style:normal;font-variant:normal;font-weight:normal;font-stretch:normal;letter-spacing:normal;word-spacing:normal;text-anchor:start;fill:#ffffff;stroke:#000000;stroke-linecap:butt;stroke-linejoin:miter;stroke-miterlimit:10.43299961;stroke-opacity:1;stroke-dasharray:none;stroke-dashoffset:0"
           id="content-3-5"
           transform="matrix(1.0629921,0,0,-1.0629921,-186.02362,789.27165)"
           xml:space="preserve"
           stroke-miterlimit="10.433"
           fill-rule="even-odd"
           font-style="normal"
           font-variant="normal"
           font-weight="normal"
           font-stretch="normal"
           font-size-adjust="none"
           letter-spacing="normal"
           word-spacing="normal"><path
             style="fill:#ffffff;stroke-width:0"
             d="m 465.32,417.51 0.14,0 0.15,0 0.17,0 0.18,0 0.18,0.01 0.2,0 0.21,0.01 0.21,0.01 0.23,0.01 0.23,0.01 0.24,0.02 0.24,0.01 0.25,0.02 0.26,0.03 0.52,0.05 0.54,0.06 0.54,0.08 0.55,0.09 0.54,0.11 0.53,0.13 0.27,0.07 0.25,0.07 0.26,0.08 0.25,0.09 0.24,0.09 0.24,0.09 c 3.48,1.5 3.73,4.44 3.73,5.14 0,2.19 -1.89,4.23 -5.33,4.23 v -1.1 c 2.34,0 3.69,-1.44 3.69,-3.13 0,-5.19 -7.97,-5.19 -10.01,-5.19 h -2.05 c 1.95,7.58 7.08,8.32 8.37,8.32 v 1.1 c -5.53,0 -13.05,-4.84 -13.05,-13.55 0,-5.08 2.94,-9.02 7.82,-9.02 7.12,0 11.31,5.28 11.31,5.88 0,0.3 -0.3,0.65 -0.6,0.65 -0.25,0 -0.35,-0.1 -0.64,-0.5 -3.94,-4.93 -9.37,-4.93 -9.97,-4.93 -3.88,0 -4.33,4.18 -4.33,5.78 0,0.6 0.05,2.14 0.8,5.18 z"
             id="path2825-1-9"
             inkscape:connector-curvature="0" /></g>      </g>
      <g
         style="fill:#ffffff"
         transform="translate(52.563295,-4.6438147)"
         id="g2843-46-2">
        <g
           style="font-style:normal;font-variant:normal;font-weight:normal;font-stretch:normal;letter-spacing:normal;word-spacing:normal;text-anchor:start;fill:#ffffff;stroke:#000000;stroke-linecap:butt;stroke-linejoin:miter;stroke-miterlimit:10.43299961;stroke-opacity:1;stroke-dasharray:none;stroke-dashoffset:0"
           word-spacing="normal"
           letter-spacing="normal"
           font-size-adjust="none"
           font-stretch="normal"
           font-weight="normal"
           font-variant="normal"
           font-style="normal"
           fill-rule="even-odd"
           stroke-miterlimit="10.433"
           xml:space="preserve"
           transform="matrix(1.0629921,0,0,-1.0629921,-186.02362,789.27165)"
           id="g2845-9-31"><path
             style="fill:#ffffff;stroke-width:0"
             id="path2847-4-0"
             d="m 469.2,424.58 h 5.63 c -1.65,-7.37 -2.09,-9.51 -2.09,-12.85 0,-0.75 0,-2.09 0.4,-3.79 0.49,-2.19 1.04,-2.49 1.79,-2.49 1,0 2.04,0.9 2.04,1.89 0,0.3 0,0.4 -0.3,1.1 -1.44,3.59 -1.44,6.83 -1.44,8.22 0,2.64 0.35,5.33 0.89,7.92 h 5.68 c 0.65,0 2.44,0 2.44,1.69 0,1.2 -1.04,1.2 -1.99,1.2 h -16.69 c -1.09,0 -2.99,0 -5.18,-2.34 -1.74,-1.95 -3.04,-4.24 -3.04,-4.49 0,-0.05 0,-0.49 0.6,-0.49 0.4,0 0.5,0.2 0.8,0.6 2.44,3.83 5.33,3.83 6.33,3.83 h 2.84 c -1.6,-6.03 -4.29,-12.05 -6.38,-16.59 -0.4,-0.74 -0.4,-0.85 -0.4,-1.19 0,-0.95 0.8,-1.35 1.44,-1.35 1.5,0 1.9,1.4 2.5,3.24 0.69,2.29 0.69,2.39 1.34,4.88 z"
             inkscape:connector-curvature="0" /></g>      </g>
      <g
         transform="translate(-73.760943,-4.5159761)"
         id="g2947-2-2">
        <g
           style="font-style:normal;font-variant:normal;font-weight:normal;font-stretch:normal;letter-spacing:normal;word-spacing:normal;text-anchor:start;fill:none;stroke:#000000;stroke-linecap:butt;stroke-linejoin:miter;stroke-miterlimit:10.43299961;stroke-opacity:1;stroke-dasharray:none;stroke-dashoffset:0"
           id="g2949-2-3"
           transform="matrix(1.0629921,0,0,-1.0629921,-186.02362,789.27165)"
           xml:space="preserve"
           stroke-miterlimit="10.433"
           fill-rule="even-odd"
           font-style="normal"
           font-variant="normal"
           font-weight="normal"
           font-stretch="normal"
           font-size-adjust="none"
           letter-spacing="normal"
           word-spacing="normal"><path
             style="fill:#000000;stroke-width:0"
             d="m 464.96,410.63 0.25,0.39 0.24,0.39 0.22,0.37 0.22,0.38 0.21,0.36 0.2,0.36 0.18,0.36 0.18,0.35 0.17,0.35 0.17,0.34 0.15,0.33 0.15,0.33 0.14,0.33 0.14,0.32 0.24,0.63 0.23,0.61 0.2,0.59 0.19,0.58 0.16,0.55 0.16,0.55 0.14,0.53 0.13,0.51 0.12,0.5 c 1.74,6.88 3.64,12.86 6.73,16.29 0.59,0.65 0.99,1.1 2.58,1.1 3.44,0 3.54,-3.44 3.54,-4.14 0,-0.89 -0.25,-1.59 -0.25,-1.84 0,-0.35 0.3,-0.35 0.35,-0.35 0.8,0 2.14,0.55 3.39,1.45 0.9,0.69 1.35,1.19 1.35,3.24 0,2.68 -1.4,4.73 -4.19,4.73 -1.6,0 -5.98,-0.4 -10.86,-5.33 -3.99,-4.09 -6.33,-13.05 -7.27,-16.79 -0.9,-3.44 -1.3,-4.98 -2.79,-7.97 -0.35,-0.6 -1.64,-2.79 -2.34,-3.44 -1.35,-1.24 -1.85,-2.14 -1.85,-2.39 0,-0.1 0.1,-0.3 0.45,-0.3 0.2,0 1.25,0.2 2.54,1.05 0.85,0.5 0.95,0.6 2.09,1.79 2.5,-0.04 4.24,-0.49 7.38,-1.39 2.54,-0.7 5.08,-1.45 7.62,-1.45 4.03,0 8.12,3.04 9.71,5.23 1,1.35 1.3,2.6 1.3,2.75 0,0.34 -0.3,0.34 -0.35,0.34 -0.8,0 -1.99,-0.54 -2.84,-1.14 -1.35,-0.85 -1.44,-1.15 -1.74,-1.99 -0.25,-0.8 -0.55,-1.2 -0.75,-1.5 -0.4,-0.6 -0.45,-0.6 -1.2,-0.6 -2.39,0 -4.88,0.75 -8.16,1.65 -1.4,0.4 -4.14,1.19 -6.63,1.19 -0.65,0 -1.35,-0.05 -2,-0.2 z"
             id="path2951-6-71"
             inkscape:connector-curvature="0" /></g>      </g>
      <g
         transform="translate(-39.652359,-4.8170411)"
         id="g2985-4-6">
        <g
           style="font-style:normal;font-variant:normal;font-weight:normal;font-stretch:normal;letter-spacing:normal;word-spacing:normal;text-anchor:start;fill:none;stroke:#000000;stroke-linecap:butt;stroke-linejoin:miter;stroke-miterlimit:10.43299961;stroke-opacity:1;stroke-dasharray:none;stroke-dashoffset:0"
           word-spacing="normal"
           letter-spacing="normal"
           font-size-adjust="none"
           font-stretch="normal"
           font-weight="normal"
           font-variant="normal"
           font-style="normal"
           fill-rule="even-odd"
           stroke-miterlimit="10.433"
           xml:space="preserve"
           transform="matrix(1.0629921,0,0,-1.0629921,-186.02362,789.27165)"
           id="g2987-1-1"><path
             style="fill:#000000;stroke-width:0"
             id="path2989-2-7"
             d="m 479.76,417.76 0,0.36 -0.01,0.36 -0.02,0.34 -0.02,0.34 -0.07,0.66 -0.08,0.62 -0.12,0.6 -0.13,0.57 -0.15,0.54 -0.18,0.51 -0.19,0.48 -0.22,0.46 -0.22,0.43 -0.25,0.41 -0.26,0.38 -0.27,0.36 -0.29,0.33 -0.3,0.31 -0.3,0.29 -0.32,0.26 -0.33,0.24 -0.34,0.22 -0.34,0.2 -0.34,0.18 -0.36,0.16 -0.35,0.14 -0.36,0.13 -0.36,0.1 -0.36,0.09 -0.36,0.07 -0.36,0.05 -0.36,0.04 -0.35,0.02 -0.35,0.01 -0.05,-1.1 c 4.93,0 4.93,-6.53 4.93,-10.41 0,-1.84 0,-4.73 0.1,-5.58 h 0 c -4.38,-3.83 -8.22,-4.38 -10.21,-4.38 -2.99,0 -4.48,2.24 -4.48,5.43 0,2.44 1.29,7.82 2.89,10.36 2.34,3.64 5.03,4.58 6.77,4.58 l 0.05,1.1 c -6.82,0 -13.4,-7.13 -13.4,-14.15 0,-4.63 2.99,-8.42 8.07,-8.42 3.14,0 6.73,1.15 10.51,4.19 0.65,-2.64 2.29,-4.19 4.54,-4.19 2.64,0 4.18,2.74 4.18,3.54 0,0.35 -0.3,0.5 -0.6,0.5 -0.35,0 -0.5,-0.15 -0.65,-0.5 -0.89,-2.44 -2.68,-2.44 -2.79,-2.44 -1.54,0 -1.54,3.88 -1.54,5.08 0,1.05 0,1.14 0.5,1.74 4.68,5.88 5.73,11.66 5.73,11.71 0,0.1 -0.05,0.5 -0.6,0.5 -0.5,0 -0.5,-0.15 -0.75,-1.05 -0.89,-3.14 -2.54,-6.92 -4.88,-9.86 z"
             inkscape:connector-curvature="0" /></g>      </g>
      <g
         transform="translate(-7.6733019,-3.0106507)"
         id="g3029-88-8">
        <g
           style="font-style:normal;font-variant:normal;font-weight:normal;font-stretch:normal;letter-spacing:normal;word-spacing:normal;text-anchor:start;fill:none;stroke:#000000;stroke-linecap:butt;stroke-linejoin:miter;stroke-miterlimit:10.43299961;stroke-opacity:1;stroke-dasharray:none;stroke-dashoffset:0"
           id="g3031-9-45"
           transform="matrix(1.0629921,0,0,-1.0629921,-186.02362,789.27165)"
           xml:space="preserve"
           stroke-miterlimit="10.433"
           fill-rule="even-odd"
           font-style="normal"
           font-variant="normal"
           font-weight="normal"
           font-stretch="normal"
           font-size-adjust="none"
           letter-spacing="normal"
           word-spacing="normal"><path
             style="fill:#000000;stroke-width:0"
             d="m 484.64,434.34 -0.01,0.35 -0.02,0.35 -0.04,0.34 -0.05,0.33 -0.07,0.33 -0.09,0.32 -0.1,0.32 -0.11,0.31 -0.13,0.3 -0.14,0.29 -0.15,0.29 -0.17,0.27 -0.18,0.27 -0.19,0.26 -0.21,0.25 -0.21,0.24 -0.23,0.22 -0.24,0.22 -0.25,0.2 -0.27,0.19 -0.27,0.18 -0.28,0.17 -0.3,0.15 -0.3,0.14 -0.32,0.12 -0.32,0.11 -0.33,0.09 -0.34,0.08 -0.35,0.06 -0.36,0.04 -0.37,0.03 -0.37,0.01 c -2.89,0 -4.29,-0.8 -6.03,-2.1 -2.74,-1.99 -5.48,-6.82 -6.43,-10.61 l -7.91,-31.62 c -0.05,-0.2 0.2,-0.5 0.59,-0.5 0.4,0 0.55,0.1 0.6,0.25 l 3.49,13.74 c 0.94,-2.99 3.14,-4.83 6.77,-4.83 l -0.15,1.1 c -3.78,0 -5.68,2.89 -5.68,6.42 0,0.5 0,1.25 0.25,2.19 l 3.19,12.61 c 1.1,4.28 4.68,12.2 10.66,12.2 2.89,0 4.63,-1.54 4.63,-4.53 h 0 c 0,-3.49 -1.89,-7.08 -4.48,-8.62 -1.35,0.5 -2.34,0.6 -3.83,0.6 -1.05,0 -3.84,0.05 -3.84,-1.59 -0.05,-1.4 2.54,-1.25 3.44,-1.25 l 0.15,1.1 c -0.7,0 -1.7,-0.05 -2.2,0.2 0.1,0.49 1.89,0.39 2.45,0.39 1.04,0 1.49,0 2.14,-0.25 h 0 c -0.65,-0.25 -1.2,-0.34 -2.39,-0.34 l -0.15,-1.1 c 1.84,0 2.59,0.05 4.08,0.65 1.89,-1.8 2.14,-3.34 2.19,-5.63 0.1,-2.89 -1.09,-6.63 -2.49,-8.57 -1.94,-2.69 -5.28,-4.48 -8.12,-4.48 l 0.15,-1.1 c 3.64,0 7.37,1.75 9.62,3.94 2.39,2.29 3.98,5.48 3.98,9.16 0,3.59 -1.84,6.18 -3.64,7.42 2.89,1.65 5.73,4.74 5.73,8.32 z"
             id="path3033-2-7"
             inkscape:connector-curvature="0" /></g>      </g>
    </g>
  </g>
</svg>
