<?xml version="1.0" encoding="UTF-8" standalone="no"?>
<!-- Created with Inkscape (http://www.inkscape.org/) -->

<svg
   xmlns:dc="http://purl.org/dc/elements/1.1/"
   xmlns:cc="http://creativecommons.org/ns#"
   xmlns:rdf="http://www.w3.org/1999/02/22-rdf-syntax-ns#"
   xmlns:svg="http://www.w3.org/2000/svg"
   xmlns="http://www.w3.org/2000/svg"
   xmlns:sodipodi="http://sodipodi.sourceforge.net/DTD/sodipodi-0.dtd"
   xmlns:inkscape="http://www.inkscape.org/namespaces/inkscape"
   width="138.13307"
   height="55.92189"
   id="svg3699"
   version="1.1"
   inkscape:version="0.48.4 r9939"
   sodipodi:docname="New document 6">
  <defs
     id="defs3701" />
  <sodipodi:namedview
     id="base"
     pagecolor="#ffffff"
     bordercolor="#666666"
     borderopacity="1.0"
     inkscape:pageopacity="0.0"
     inkscape:pageshadow="2"
     inkscape:zoom="2.3166067"
     inkscape:cx="69.066536"
     inkscape:cy="27.960945"
     inkscape:document-units="px"
     inkscape:current-layer="layer1"
     showgrid="false"
     fit-margin-top="0"
     fit-margin-left="0"
     fit-margin-right="0"
     fit-margin-bottom="0"
     inkscape:window-width="484"
     inkscape:window-height="413"
     inkscape:window-x="0"
     inkscape:window-y="0"
     inkscape:window-maximized="0" />
  <metadata
     id="metadata3704">
    <rdf:RDF>
      <cc:Work
         rdf:about="">
        <dc:format>image/svg+xml</dc:format>
        <dc:type
           rdf:resource="http://purl.org/dc/dcmitype/StillImage" />
        <dc:title></dc:title>
      </cc:Work>
    </rdf:RDF>
  </metadata>
  <g
     inkscape:label="Layer 1"
     inkscape:groupmode="layer"
     id="layer1"
     transform="translate(-420.21905,-359.81443)">
    <g
       id="g3800-5-1"
       transform="matrix(0.0269114,0,0,0.0269114,412.87358,348.404)">
      <polygon
         transform="translate(-181.16667,-1)"
         points="1989,425 2976,425 2834,2503 1853,2503 1984,425 "
         style="fill:#28166f;stroke:#00008f;stroke-width:0;stroke-linecap:butt;stroke-linejoin:miter"
         id="polygon8-2-0" />
      <path
         inkscape:connector-curvature="0"
         style="fill:#0087cf;stroke:#0087cf;stroke-width:0;stroke-linecap:butt;stroke-linejoin:bevel"
         d="m 111.9375,222.90625 -0.625,8.90625 0.0625,0 0.21875,0 0.40625,0.0313 0.34375,0.0313 0.3125,0.0625 0.375,0.0937 0.1875,0.0313 0.21875,0.125 0.28125,0.0625 0.28125,0.125 0.28125,0.125 0.3125,0.15625 0.25,0.15625 0.28125,0.1875 0.25,0.1875 0.21875,0.21875 0.21875,0.1875 0.21875,0.21875 0.1875,0.28125 0.1875,0.28125 0.15625,0.34375 0.125,0.3125 0.0937,0.3125 0.0625,0.3125 0.0313,0.28125 0,0.3125 -0.0625,0.28125 -0.0937,0.3125 -0.0937,0.28125 -0.125,0.34375 -0.21875,0.3125 -0.1875,0.3125 -0.25,0.3125 -0.25,0.25 -0.25,0.21875 -0.21875,0.25 -0.25,0.1875 -0.28125,0.15625 -0.28125,0.21875 -0.3125,0.125 -0.28125,0.1875 -0.3125,0.15625 -0.25,0.0937 -0.3125,0.0937 -0.1875,0.0625 -0.21875,0.0937 -0.375,0.0625 -0.3125,0.0313 -0.34375,0.0937 -0.40625,0.0313 -0.21875,0 -0.0625,0 -0.625,8.875 0.0313,0 0.15625,0 0.25,-0.0313 0.4375,-0.0313 0.5,-0.0313 0.46875,0 0.46875,-0.0625 0.40625,-0.0937 0.40625,-0.0625 0.46875,-0.125 0.3125,-0.0937 0.40625,-0.125 0.40625,-0.125 0.4375,-0.125 0.4375,-0.1875 0.46875,-0.1875 0.53125,-0.1875 0.5,-0.21875 0.5,-0.25 0.46875,-0.28125 0.5,-0.21875 0.375,-0.25 0.4375,-0.3125 0.4375,-0.25 0.34375,-0.3125 0.40625,-0.34375 0.375,-0.3125 0.375,-0.375 0.375,-0.40625 0.375,-0.40625 0.34375,-0.40625 0.34375,-0.46875 0.3125,-0.40625 0.28125,-0.40625 0.21875,-0.375 0.21875,-0.40625 0.21875,-0.375 0.15625,-0.375 0.21875,-0.40625 0.125,-0.375 0.125,-0.40625 0.125,-0.4375 0.0937,-0.4375 0.0937,-0.40625 0.0625,-0.40625 0.0625,-0.4375 0.0313,-0.34375 0.0313,-0.375 0.0313,-0.375 0,-0.3125 0.0313,-0.34375 0.0313,-0.34375 0,-0.375 0.0313,-0.40625 0,-0.40625 -0.0313,-0.40625 -0.0313,-0.40625 -0.0313,-0.4375 -0.0625,-0.375 -0.0625,-0.4375 -0.0937,-0.40625 -0.125,-0.40625 -0.15625,-0.34375 -0.125,-0.375 -0.1565,-0.4062 L 124.25,230 l -0.21875,-0.40625 -0.25,-0.4375 -0.28125,-0.4375 -0.28125,-0.375 -0.3125,-0.4375 -0.3125,-0.40625 -0.34375,-0.34375 -0.3125,-0.34375 -0.375,-0.375 -0.34375,-0.25 -0.375,-0.3125 -0.34375,-0.25 -0.4375,-0.25 -0.4375,-0.28125 -0.375,-0.21875 -0.5,-0.28125 -0.46875,-0.1875 -0.46875,-0.25 -0.46875,-0.15625 -0.40625,-0.15625 -0.40625,-0.125 -0.40625,-0.1875 -0.34375,-0.0937 -0.3125,-0.0937 L 115,223.25 114.59375,223.15625 114.1875,223.0625 113.75,223 l -0.46875,-0.0313 -0.46875,-0.0313 -0.40625,0 -0.3125,-0.0313 -0.125,0 -0.0313,0 z"
         transform="matrix(37.158974,0,0,37.158974,-651.80002,-7764.6113)"
         id="polyline10-90-1" />
      <path
         inkscape:connector-curvature="0"
         style="fill:#0087cf;stroke:#0087cf;stroke-width:0;stroke-linecap:butt;stroke-linejoin:bevel"
         d="m 28.46875,249.59375 0,0.0313 0,0.15625 -0.03125,0.28125 0,0.53125 -0.03125,0.625 -0.03125,0.625 0,0.625 0,0.5625 0.03125,0.53125 0.03125,0.46875 0.0625,0.4375 0.0625,0.4375 0.0625,0.375 0.09375,0.40625 0.0625,0.40625 0.125,0.375 0.125,0.46875 0.1875,0.46875 0.15625,0.4375 0.15625,0.4375 0.25,0.4375 0.1875,0.4375 0.21875,0.40625 0.28125,0.40625 0.1875,0.34375 0.3125,0.34375 0.25,0.3125 0.3125,0.34375 0.3125,0.34375 0.375,0.28125 0.375,0.34375 0.40625,0.28125 0.46875,0.3125 0.46875,0.28125 0.46875,0.28125 0.5,0.1875 0.46875,0.21875 0.46875,0.1875 0.46875,0.1875 0.5,0.125 0.4375,0.0625 0.4375,0.15625 0.5,0.0625 0.4375,0.0625 0.5625,0.0937 0.53125,0.0313 0.53125,0.0313 0.5625,0.0625 0.59375,0.0313 0.5625,0.0313 0.5625,0 0.5625,0.0313 0.53125,0 0.5625,0 0.5,0 0.5,0 0.53125,0 0.53125,0 0.5,0 0.5625,0 0.59375,-0.0313 0.5625,0 0.5625,-0.0313 0.59375,-0.0313 0.5625,-0.0625 0.5625,-0.0313 0.5625,-0.0313 0.53125,-0.0937 0.53125,-0.0625 0.4375,-0.0625 0.5,-0.15625 0.4375,-0.0625 0.46875,-0.125 0.46875,-0.125 0.40625,-0.15625 0.46875,-0.1875 0.46875,-0.1875 0.4375,-0.1875 0.5,-0.28125 0.40625,-0.21875 0.4375,-0.25 0.4375,-0.28125 0.40625,-0.28125 L 59,261.78125 59.34375,261.5 59.71875,261.21875 60,260.9375 l 0.3125,-0.28125 0.28125,-0.34375 0.3125,-0.34375 0.25,-0.40625 0.3125,-0.40625 0.21875,-0.4375 0.28125,-0.4375 0.21875,-0.4375 0.21875,-0.4375 0.21875,-0.46875 0.15625,-0.46875 0.15625,-0.375 0.15625,-0.40625 0.125,-0.40625 0.09375,-0.375 0.09375,-0.4375 0.09375,-0.4375 0.09375,-0.46875 0.09375,-0.53125 0.09375,-0.5625 0.03125,-0.625 0.09375,-0.625 0.0625,-0.625 L 64,250.0625 l 0.03125,-0.28125 0,-0.15625 0,-0.0313 -8.875,0 0,0.0313 -0.0625,0.125 -0.03125,0.25 -0.03125,0.4375 -0.09375,0.5625 -0.09375,0.625 -0.125,0.625 -0.125,0.59375 -0.1875,0.53125 -0.15625,0.4375 -0.15625,0.375 -0.25,0.34375 -0.25,0.25 -0.28125,0.25 -0.28125,0.15625 -0.3125,0.125 -0.34375,0.1875 -0.40625,0.125 -0.40625,0.0625 -0.46875,0.125 -0.5,0.0625 -0.5,0.0937 -0.53125,0.0313 -0.53125,0.0625 -0.53125,0.0313 -0.5625,0 -0.53125,0 -0.53125,0 -0.53125,0 -0.5,0 -0.5,0 -0.53125,0 -0.53125,0 -0.53125,0 -0.53125,0 L 42.6875,256.0625 42.15625,256 41.625,255.9687 l -0.5,-0.0937 -0.5,-0.0625 -0.46875,-0.125 -0.40625,-0.0625 -0.375,-0.125 -0.3125,-0.1875 -0.28125,-0.125 -0.28125,-0.15625 -0.25,-0.25 -0.21875,-0.25 -0.1875,-0.34375 -0.125,-0.375 L 37.625,253.375 37.5,252.84375 37.4375,252.25 37.40625,251.625 37.375,251 l 0,-0.5625 0,-0.4375 0,-0.25 0,-0.125 0,-0.0313 -8.90625,0 z"
         id="polyline12-2-3"
         transform="matrix(37.158974,0,0,37.158974,-651.80002,-7764.6113)" />
      <polyline
         transform="translate(-181.16667,-1)"
         points="1870,2083 2201,2083 2240,1511 2796,1511 2819,1181 2263,1181 2285,850 2946,850 2970,519 1977,519 "
         style="fill:#ffffff;stroke:#ffffff;stroke-width:0;stroke-linecap:butt;stroke-linejoin:miter"
         id="polyline14-8-7" />
      <polyline
         transform="translate(-181.16667,-1)"
         points="1579,1511 1909,1511 1977,519 1647,519 "
         style="fill:#0087cf;stroke:#0087cf;stroke-width:0;stroke-linecap:butt;stroke-linejoin:miter"
         id="polyline16-3-7" />
      <polyline
         transform="translate(-181.16667,-1)"
         points="4112,2083 4443,2083 4550,519 4219,519 "
         style="fill:#0087cf;stroke:#0087cf;stroke-width:0;stroke-linecap:butt;stroke-linejoin:miter"
         id="polyline18-8-2" />
      <polygon
         transform="translate(-181.16667,-1)"
         points="4219,519 4618,519 5480,2083 5091,2083 4219,519 "
         style="fill:#0087cf;stroke:#0087cf;stroke-width:0;stroke-linecap:butt;stroke-linejoin:miter"
         id="polygon20-0-6" />
      <polyline
         transform="translate(-181.16667,-1)"
         points="5149,2083 5480,2083 5587,519 5256,519 "
         style="fill:#0087cf;stroke:#0087cf;stroke-width:0;stroke-linecap:butt;stroke-linejoin:miter"
         id="polyline22-4-4" />
      <polyline
         transform="translate(-181.16667,-1)"
         points="587,1511 918,1511 986,519 656,519 "
         style="fill:#0087cf;stroke:#0087cf;stroke-width:0;stroke-linecap:butt;stroke-linejoin:miter"
         id="polyline24-09-5" />
      <polyline
         transform="translate(-181.16667,-1)"
         points="3760,2083 4112,2083 3946,1511 3599,1511 "
         style="fill:#0087cf;stroke:#0087cf;stroke-width:0;stroke-linecap:butt;stroke-linejoin:miter"
         id="polyline26-1-2" />
      <polyline
         transform="translate(-181.16667,-1)"
         points="2862,2083 3193,2083 3232,1511 3620,1511 3644,1181 3255,1181 3277,850 3666,850 3689,519 2970,519 "
         style="fill:#0087cf;stroke:#0087cf;stroke-width:0;stroke-linecap:butt;stroke-linejoin:miter"
         id="polyline28-9-0" />
      <polyline
         transform="translate(-181.16667,-1)"
         points="2862,2083 3193,2083 3232,1511 3620,1511 3644,1181 3255,1181 3277,850 3666,850 3689,519 2970,519 "
         style="fill:#0087cf;stroke:#0087cf;stroke-width:0;stroke-linecap:butt;stroke-linejoin:miter"
         id="polyline32-2-2" />
      <polygon
         transform="translate(-181.16667,-1)"
         points="1748,1391 1748,1391 1771,1393 1792,1398 1809,1404 1824,1411 1837,1418 1846,1424 1856,1430 1865,1438 1874,1445 1882,1455 1891,1466 1900,1479 1906,1495 1909,1511 1906,1528 1900,1544 1891,1556 1882,1568 1874,1577 1865,1585 1856,1592 1846,1598 1837,1605 1824,1612 1809,1618 1792,1625 1771,1630 1748,1632 1728,1630 1708,1627 1691,1620 1676,1615 1665,1609 1653,1604 1644,1597 1635,1592 1627,1586 1619,1580 1611,1571 1603,1563 1594,1552 1587,1540 1581,1526 1579,1511 1581,1497 1587,1483 1594,1470 1603,1460 1611,1451 1619,1443 1627,1437 1635,1430 1644,1425 1653,1419 1665,1414 1676,1407 1691,1402 1708,1396 1728,1393 "
         style="fill:#0087cf;stroke:#0087cf;stroke-width:0;stroke-linecap:butt;stroke-linejoin:bevel"
         id="polygon40-9-9" />
      <polygon
         transform="translate(-181.16667,-1)"
         points="755,1391 755,1391 779,1393 799,1398 817,1404 832,1411 845,1418 855,1424 865,1430 873,1438 881,1445 891,1455 900,1466 909,1479 915,1495 918,1511 915,1528 909,1544 900,1556 891,1568 881,1577 873,1585 865,1592 855,1598 845,1605 832,1612 817,1618 799,1625 779,1630 755,1632 735,1630 716,1627 699,1620 685,1615 672,1609 662,1604 653,1597 644,1592 636,1586 627,1580 620,1571 612,1563 603,1552 596,1540 590,1526 587,1511 590,1497 596,1483 603,1470 612,1460 620,1451 627,1443 636,1437 644,1430 653,1425 662,1419 672,1414 685,1407 699,1402 716,1396 735,1393 "
         style="fill:#0087cf;stroke:#0087cf;stroke-width:0;stroke-linecap:butt;stroke-linejoin:bevel"
         id="polygon42-3-0" />
      <polygon
         transform="translate(-181.16667,-1)"
         points="3828,1427 3845,1433 3859,1438 3870,1443 3881,1448 3891,1454 3901,1460 3911,1467 3922,1476 3931,1486 3939,1498 3942,1511 3939,1525 3931,1537 3922,1547 3911,1555 3901,1563 3891,1569 3881,1574 3870,1580 3859,1585 3845,1590 3828,1595 3809,1601 3787,1604 3763,1606 3739,1604 3718,1601 3699,1595 3685,1590 3672,1585 3662,1580 3653,1574 3645,1569 3635,1563 3627,1555 3617,1547 3609,1537 3603,1525 3599,1511 3603,1498 3609,1486 3617,1476 3627,1467 3635,1460 3645,1454 3653,1448 3662,1443 3672,1438 3685,1433 3699,1427 3718,1422 3739,1419 3763,1417 3763,1417 3787,1419 3809,1422 "
         style="fill:#0087cf;stroke:#0087cf;stroke-width:0;stroke-linecap:butt;stroke-linejoin:bevel"
         id="polygon44-6-9" />
      <polygon
         transform="translate(-181.16667,-1)"
         points="3548,1406 3552,1421 3556,1435 3561,1445 3565,1455 3569,1464 3574,1474 3581,1483 3588,1492 3597,1501 3608,1508 3620,1511 3633,1508 3645,1501 3655,1492 3665,1483 3672,1474 3678,1464 3683,1455 3690,1445 3695,1435 3701,1421 3707,1406 3713,1387 3718,1366 3721,1343 3721,1320 3719,1299 3716,1281 3712,1267 3708,1254 3703,1244 3699,1234 3695,1226 3690,1217 3683,1208 3676,1198 3667,1190 3656,1184 3644,1181 3631,1184 3619,1190 3609,1198 3599,1208 3592,1217 3586,1226 3581,1234 3574,1244 3569,1254 3563,1267 3558,1281 3551,1299 3546,1320 3543,1343 3543,1343 3543,1366 3545,1387 "
         style="fill:#0087cf;stroke:#0087cf;stroke-width:0;stroke-linecap:butt;stroke-linejoin:bevel"
         id="polygon46-0-9" />
      <polygon
         transform="translate(-181.16667,-1)"
         points="3591,745 3595,760 3599,773 3604,784 3609,793 3613,803 3618,812 3625,822 3633,831 3643,839 3653,847 3666,850 3678,847 3690,839 3700,831 3709,822 3716,812 3722,803 3728,793 3733,784 3738,773 3743,760 3750,745 3755,726 3760,705 3763,682 3763,659 3761,638 3758,620 3754,605 3751,593 3746,582 3742,573 3738,564 3734,556 3728,546 3720,537 3712,529 3701,522 3689,519 3676,522 3664,529 3653,537 3645,546 3636,556 3630,564 3624,573 3618,582 3612,593 3606,605 3599,620 3593,638 3588,659 3585,682 3585,682 3585,705 3587,726 "
         style="fill:#0087cf;stroke:#0087cf;stroke-width:0;stroke-linecap:butt;stroke-linejoin:bevel"
         id="polygon48-5-4" />
      <text
         xml:space="preserve"
         x="1660.8334"
         y="2408"
         font-style="italic"
         font-weight="normal"
         font-size="152"
         id="text52-2-5"
         style="font-size:187.96296692px;font-style:italic;font-weight:normal;text-anchor:end;fill:#28166f;stroke-width:0.025in;font-family:Helvetica">UNIVERSIDADE</text>
      <text
         xml:space="preserve"
         x="2652.8333"
         y="2408"
         font-style="italic"
         font-weight="normal"
         font-size="152"
         id="text54-9-1"
         style="font-size:187.96296692px;font-style:italic;font-weight:normal;text-anchor:start;fill:#28166f;stroke-width:0.025in;font-family:Helvetica">DO RIO GRANDE DO NORTE</text>
      <text
         xml:space="preserve"
         x="2153.8333"
         y="2408"
         font-style="italic"
         font-weight="bold"
         font-size="152"
         id="text56-4-0"
         style="font-size:187.96296692px;font-style:italic;font-weight:bold;text-anchor:middle;fill:#ffffff;stroke-width:0.025in;font-family:Helvetica">FEDERAL</text>
    </g>
  </g>
</svg>
